<?xml version="1.0" encoding="UTF-8"?><svg id="Layer_2" xmlns="http://www.w3.org/2000/svg" viewBox="0 0 151.74 119.06"><defs><style>.cls-1{fill:#fff;stroke-width:0px;}</style></defs><g id="Layer_1-2"><path class="cls-1" d="M0,74.64c.94-1.3,1.72-2.76,2.83-3.88,11.97-12.05,24-24.04,36.01-36.06,1.1-1.11,2.27-2.04,3.91-2.18,3.06-.27,5.67,1.66,5.89,4.71.22,3.19.12,6.41.14,9.62.02,2.36,0,4.73,0,7.29.77,0,1.4,0,2.02,0,18.76,0,37.53.07,56.29-.05,4.67-.03,7,2.75,6.72,6.8-.16,2.25-.03,4.52-.03,6.51,8.05-8.05,16.18-16.18,24.15-24.15-7.85-7.86-16.02-16.04-24.15-24.18,0,2.18,0,4.62,0,7.06,0,4.18-2.09,6.31-6.26,6.32-13.92.02-27.85.02-41.78,0-4.34,0-7.02-3.25-5.88-7,.72-2.37,2.77-3.83,5.53-3.83,6.17-.02,12.34,0,18.52,0,5.73,0,11.46,0,17.18,0h1.75c.03-.61.08-1.13.08-1.65,0-4.69-.03-9.38.02-14.07.04-3.68,2.42-6.21,5.73-5.84,1.27.14,2.73.79,3.63,1.68,12.6,12.47,25.12,25.02,37.64,37.57,2.46,2.47,2.37,5.6-.16,8.13-12.38,12.41-24.79,24.79-37.17,37.2-1.82,1.83-3.91,2.51-6.32,1.54-2.38-.96-3.34-2.95-3.35-5.43-.02-4.69,0-9.38,0-14.07,0-.53-.04-1.05-.07-1.73h-1.87c-18.91,0-37.82,0-56.74,0-4.3,0-6.31-2.04-6.32-6.37,0-1.98,0-3.95,0-5.93v-1.18c-8.17,8.19-16.31,16.34-24.34,24.37,7.94,7.94,16.1,16.1,24.25,24.25.01-.12.08-.47.09-.82.01-2.37-.03-4.74.02-7.11.06-3.01,2-5.11,4.97-5.45.49-.06.98-.08,1.48-.08,13.78,0,27.55,0,41.33.01.93,0,1.89.09,2.77.37,2.39.76,3.9,3.25,3.58,5.67-.34,2.57-2.34,4.52-4.92,4.76-.54.05-1.09.03-1.63.03-11.65,0-23.31,0-34.96,0h-1.78c0,.66,0,1.18,0,1.71,0,4.59.03,9.18,0,13.78-.03,3.87-2.44,6.49-5.8,6.08-1.27-.16-2.71-.82-3.62-1.72-12.56-12.44-25.05-24.95-37.52-37.48C1.06,79.04.6,77.95,0,77.01c0-.79,0-1.58,0-2.37Z"/></g></svg>